<?xml version="1.0" encoding="utf-8"?>
<!-- Generator: Adobe Illustrator 21.0.0, SVG Export Plug-In . SVG Version: 6.00 Build 0)  -->
<svg version="1.1" id="Capa_1" xmlns="http://www.w3.org/2000/svg" xmlns:xlink="http://www.w3.org/1999/xlink" x="0px" y="0px"
	 viewBox="0 0 1500 400" style="enable-background:new 0 0 1500 400;" xml:space="preserve">
<style type="text/css">
	.st0{fill:url(#SVGID_1_);}
	.st1{fill:url(#SVGID_2_);}
	.st2{fill:url(#SVGID_3_);}
	.st3{fill:url(#SVGID_4_);}
	.st4{fill:url(#SVGID_5_);}
	.st5{fill:url(#SVGID_6_);}
	.st6{fill:url(#SVGID_7_);}
	.st7{fill:url(#SVGID_8_);}
	.st8{fill:url(#SVGID_9_);}
	.st9{fill:url(#SVGID_10_);}
	.st10{fill:url(#SVGID_11_);}
	.st11{fill:url(#SVGID_12_);}
	.st12{fill:url(#SVGID_13_);}
	.st13{fill:url(#SVGID_14_);}
	.st14{fill:url(#SVGID_15_);}
	.st15{fill:url(#SVGID_16_);}
	.st16{fill:url(#SVGID_17_);}
	.st17{fill:url(#SVGID_18_);}
	.st18{fill:url(#SVGID_19_);}
	.st19{fill:url(#SVGID_20_);}
	.st20{fill:url(#SVGID_21_);}
	.st21{fill:url(#SVGID_22_);}
	.st22{fill:url(#SVGID_23_);}
	.st23{fill:url(#SVGID_24_);}
	.st24{fill:url(#SVGID_25_);}
	.st25{fill:url(#SVGID_26_);}
	.st26{fill:url(#SVGID_27_);}
	.st27{fill:url(#SVGID_28_);}
	.st28{fill:url(#SVGID_29_);}
	.st29{fill:url(#SVGID_30_);}
	.st30{fill:url(#SVGID_31_);}
	.st31{fill:url(#SVGID_32_);}
	.st32{fill:url(#SVGID_33_);}
	.st33{fill:url(#SVGID_34_);}
	.st34{fill:url(#SVGID_35_);}
	.st35{fill:url(#SVGID_36_);}
	.st36{fill:url(#SVGID_37_);}
	.st37{fill:url(#SVGID_38_);}
	.st38{fill:url(#SVGID_39_);}
	.st39{fill:url(#SVGID_40_);}
	.st40{fill:url(#SVGID_41_);}
	.st41{fill:url(#SVGID_42_);}
	.st42{fill:url(#SVGID_43_);}
	.st43{fill:url(#SVGID_44_);}
	.st44{fill:url(#SVGID_45_);}
	.st45{fill:url(#SVGID_46_);}
	.st46{fill:url(#SVGID_47_);}
	.st47{fill:url(#SVGID_48_);}
	.st48{fill:url(#SVGID_49_);}
	.st49{fill:url(#SVGID_50_);}
	.st50{fill:url(#SVGID_51_);}
	.st51{fill:url(#SVGID_52_);}
	.st52{fill:url(#SVGID_53_);}
	.st53{fill:#F4F4F4;}
	.st54{fill:url(#SVGID_54_);}
	.st55{fill:url(#SVGID_55_);}
	.st56{fill:url(#SVGID_56_);}
	.st57{fill:url(#SVGID_57_);}
	.st58{fill:url(#SVGID_58_);}
	.st59{fill:url(#SVGID_59_);}
	.st60{fill:url(#SVGID_60_);}
	.st61{fill:url(#SVGID_61_);}
	.st62{fill:url(#SVGID_62_);}
	.st63{fill:url(#SVGID_63_);}
	.st64{fill:url(#SVGID_64_);}
	.st65{fill:url(#SVGID_65_);}
	.st66{fill:url(#SVGID_66_);}
	.st67{fill:url(#SVGID_67_);}
	.st68{fill:url(#SVGID_68_);}
	.st69{fill:url(#SVGID_69_);}
	.st70{fill:url(#SVGID_70_);}
	.st71{fill:url(#SVGID_71_);}
	.st72{fill:url(#SVGID_72_);}
	.st73{fill:url(#SVGID_73_);}
	.st74{fill:url(#SVGID_74_);}
	.st75{fill:url(#SVGID_75_);}
	.st76{fill:url(#SVGID_76_);}
	.st77{fill:url(#SVGID_77_);}
	.st78{fill:url(#SVGID_78_);}
	.st79{fill:url(#SVGID_79_);}
	.st80{fill:url(#SVGID_80_);}
	.st81{fill:url(#SVGID_81_);}
	.st82{fill:url(#SVGID_82_);}
	.st83{fill:url(#SVGID_83_);}
	.st84{fill:url(#SVGID_84_);}
	.st85{fill:url(#SVGID_85_);}
	.st86{fill:url(#SVGID_86_);}
</style>
<g>
	<g>
		<path class="st53" d="M552.9,131.4l-15.8,30.8c-3.6-3-7.7-5.4-12.2-7.2c-4.5-1.8-9.2-2.7-14.1-2.7c-0.7,0-1.4,0-2.2,0.1
			c-0.8,0.1-1.6,0.2-2.4,0.5c-3.1,0.7-5.9,2-8.5,4.1c-2.6,2-3.8,4.7-3.8,8.1c0,3.2,1.2,5.8,3.6,7.8c2.4,2,5.1,3.5,7.9,4.8
			c1.1,0.4,2.1,0.8,3.1,1.1c1,0.3,2,0.6,2.9,0.9l10.1,2.8c10.7,3.2,19.6,7.9,26.8,14.1c7.2,6.1,10.8,15.4,10.8,27.8
			c0,0.5,0,1.1,0,1.6c0,0.5,0,1.1,0,1.6c-0.3,7-1.6,13.9-3.8,20.5c-2.3,6.7-6.3,12.4-11.9,17.3c-5.1,4.5-10.9,7.8-17.4,9.9
			c-6.5,2.2-13.1,3.5-19.8,4.1c-1.1,0-2.1,0-3.1,0.1c-1,0.1-2,0.1-2.9,0.1c-9.6,0-19-1.5-28.1-4.6c-9.2-3-17.7-7.3-25.5-12.7
			l17-32.2c5,4.5,10.4,8.2,16.3,11.3c5.9,3.1,12.2,4.7,18.9,4.7c0.3,0,0.5,0,0.8,0c0.3,0,0.5,0,0.8,0c4.5-0.3,8.5-1.7,12.1-4.2
			c3.6-2.5,5.5-6.2,5.5-11.2c0-3.8-1.5-6.8-4.6-9.1c-3-2.3-6.4-4.1-10.2-5.5c-1.6-0.5-3.2-1-4.9-1.5c-1.6-0.5-3.1-0.9-4.5-1.3
			c-0.3-0.1-0.6-0.2-0.9-0.3c-0.3-0.1-0.6-0.2-0.9-0.3c-12-3.4-21.6-7.7-28.8-13c-7.2-5.3-10.7-15.1-10.7-29.6
			c0-15.5,5-27.9,14.9-37.2c9.9-9.3,22.5-14,37.8-14c3.1,0,6.3,0.2,9.5,0.5c3.2,0.3,6.5,0.9,9.7,1.7c5.1,1.1,10.2,2.5,15.1,4.3
			c4.9,1.8,9.4,3.8,13.5,6.1V131.4z"/>
		<path class="st53" d="M678.5,156.5v25.5h44.7v33.6h-44.7V242h47.2v33.6h-86.9V122.9h86.9v33.6H678.5z"/>
		<path class="st53" d="M889.8,213l48,62.6h-49.4l-37.5-58.7h-0.4v58.7h-39.7V122.9h59.3c15.1,0.1,27.7,3.9,37.9,11.4
			c10.1,7.5,15.2,19.4,15.2,35.7c0,10.5-2.9,19.9-8.6,28c-5.7,8.2-14,13.2-24.8,15.1V213z M850.5,191.4h3.8c0.7,0.1,1.4,0.2,2,0.2
			s1.3,0,1.8,0c5.9-0.3,11.4-1.7,16.3-4.2c4.9-2.5,7.4-7.5,7.4-14.9c0-7.5-2.5-12.5-7.4-15c-4.9-2.5-10.4-3.9-16.3-4.2
			c-0.5,0-1.1,0-1.8,0s-1.4,0-2,0h-3.8V191.4z"/>
		<path class="st53" d="M1048.9,156.5v25.5h43.5v33.6h-43.5v59.9h-39.7V122.9h87.7v33.6H1048.9z"/>
		<path class="st53" d="M1219.4,275.6h-39.7V122.9h39.7V275.6z"/>
		<path class="st53" d="M1306.1,122.9h39.7l72.7,93.3h0.4v-93.3h39.7v152.6h-39.7l-72.7-93.5h-0.4v93.5h-39.7V122.9z"/>
	</g>
	<g>
		<g>
			<linearGradient id="SVGID_1_" gradientUnits="userSpaceOnUse" x1="52.8176" y1="199.4311" x2="326.9906" y2="199.4311">
				<stop  offset="0" style="stop-color:#0492C7"/>
				<stop  offset="1" style="stop-color:#00FF91"/>
			</linearGradient>
			<path class="st0" d="M189.9,357.7L52.8,278.6V120.3l137.1-79.1L327,120.3l0,158.3L189.9,357.7z M61.8,273.4l128.1,73.9L318,273.4
				l0-147.9L189.9,51.5L61.8,125.5V273.4z"/>
		</g>
		<linearGradient id="SVGID_2_" gradientUnits="userSpaceOnUse" x1="41.5" y1="126.7159" x2="72.3875" y2="126.7159">
			<stop  offset="0" style="stop-color:#0492C7"/>
			<stop  offset="1" style="stop-color:#00FF91"/>
		</linearGradient>
		<circle class="st1" cx="56.9" cy="126.7" r="15.4"/>
		<linearGradient id="SVGID_3_" gradientUnits="userSpaceOnUse" x1="302.7567" y1="126.7159" x2="333.6442" y2="126.7159">
			<stop  offset="0" style="stop-color:#0492C7"/>
			<stop  offset="1" style="stop-color:#00FF91"/>
		</linearGradient>
		<circle class="st2" cx="318.2" cy="126.7" r="15.4"/>
		<linearGradient id="SVGID_4_" gradientUnits="userSpaceOnUse" x1="41.5" y1="274.7184" x2="72.3875" y2="274.7184">
			<stop  offset="0" style="stop-color:#0492C7"/>
			<stop  offset="1" style="stop-color:#00FF91"/>
		</linearGradient>
		<circle class="st3" cx="56.9" cy="274.7" r="15.4"/>
		<linearGradient id="SVGID_5_" gradientUnits="userSpaceOnUse" x1="302.7567" y1="274.7184" x2="333.6442" y2="274.7184">
			<stop  offset="0" style="stop-color:#0492C7"/>
			<stop  offset="1" style="stop-color:#00FF91"/>
		</linearGradient>
		<circle class="st4" cx="318.2" cy="274.7" r="15.4"/>
		<linearGradient id="SVGID_6_" gradientUnits="userSpaceOnUse" x1="172.7718" y1="49.4971" x2="203.6593" y2="49.4971">
			<stop  offset="0" style="stop-color:#0492C7"/>
			<stop  offset="1" style="stop-color:#00FF91"/>
		</linearGradient>
		<circle class="st5" cx="188.2" cy="49.5" r="15.4"/>
		<linearGradient id="SVGID_7_" gradientUnits="userSpaceOnUse" x1="172.7718" y1="350.6502" x2="203.6593" y2="350.6502">
			<stop  offset="0" style="stop-color:#0492C7"/>
			<stop  offset="1" style="stop-color:#00FF91"/>
		</linearGradient>
		<circle class="st6" cx="188.2" cy="350.7" r="15.4"/>
		<g>
			<linearGradient id="SVGID_8_" gradientUnits="userSpaceOnUse" x1="142.137" y1="135.9522" x2="278.7314" y2="135.9522">
				<stop  offset="0" style="stop-color:#0492C7"/>
				<stop  offset="1" style="stop-color:#00FF91"/>
			</linearGradient>
			<polygon class="st7" points="146.8,179.5 142.1,171.8 274.1,92.4 278.7,100.1 			"/>
		</g>
		<g>
			<linearGradient id="SVGID_9_" gradientUnits="userSpaceOnUse" x1="99.6667" y1="262.0761" x2="236.2611" y2="262.0761">
				<stop  offset="0" style="stop-color:#0492C7"/>
				<stop  offset="1" style="stop-color:#00FF91"/>
			</linearGradient>
			<polygon class="st8" points="104.3,305.6 99.7,297.9 231.6,218.5 236.3,226.3 			"/>
		</g>
		<linearGradient id="SVGID_10_" gradientUnits="userSpaceOnUse" x1="129.0146" y1="175.6211" x2="159.9021" y2="175.6211">
			<stop  offset="0" style="stop-color:#0492C7"/>
			<stop  offset="1" style="stop-color:#00FF91"/>
		</linearGradient>
		<circle class="st9" cx="144.5" cy="175.6" r="15.4"/>
		<linearGradient id="SVGID_11_" gradientUnits="userSpaceOnUse" x1="218.4957" y1="222.4071" x2="249.3831" y2="222.4071">
			<stop  offset="0" style="stop-color:#0492C7"/>
			<stop  offset="1" style="stop-color:#00FF91"/>
		</linearGradient>
		<circle class="st10" cx="233.9" cy="222.4" r="15.4"/>
	</g>
</g>
</svg>
