<?xml version="1.0" encoding="UTF-8" standalone="no"?>
<svg
   xmlns:dc="http://purl.org/dc/elements/1.1/"
   xmlns:cc="http://creativecommons.org/ns#"
   xmlns:rdf="http://www.w3.org/1999/02/22-rdf-syntax-ns#"
   xmlns:svg="http://www.w3.org/2000/svg"
   xmlns="http://www.w3.org/2000/svg"
   xmlns:sodipodi="http://sodipodi.sourceforge.net/DTD/sodipodi-0.dtd"
   xmlns:inkscape="http://www.inkscape.org/namespaces/inkscape"
   width="94.518036mm"
   height="125.86544mm"
   viewBox="0 0 94.518036 125.86544"
   version="1.1"
   id="svg8"
   inkscape:version="1.0.2 (394de47547, 2021-03-26)"
   sodipodi:docname="yuen_logo.svg">
  <defs
     id="defs2">
    <inkscape:perspective
       sodipodi:type="inkscape:persp3d"
       inkscape:vp_x="0 : -22.634563 : 1"
       inkscape:vp_y="0 : 999.99994 : 0"
       inkscape:vp_z="210.00001 : -22.634563 : 1"
       inkscape:persp3d-origin="105 : -72.13456 : 1"
       id="perspective12" />
  </defs>
  <sodipodi:namedview
     id="base"
     pagecolor="#ffffff"
     bordercolor="#666666"
     borderopacity="1.0"
     inkscape:pageopacity="0.0"
     inkscape:pageshadow="2"
     inkscape:zoom="0.7"
     inkscape:cx="440.62505"
     inkscape:cy="124.6634"
     inkscape:document-units="mm"
     inkscape:current-layer="layer1"
     inkscape:document-rotation="0"
     showgrid="false"
     inkscape:window-width="1863"
     inkscape:window-height="1025"
     inkscape:window-x="57"
     inkscape:window-y="1107"
     inkscape:window-maximized="1"
     fit-margin-top="0"
     fit-margin-left="0"
     fit-margin-right="0"
     fit-margin-bottom="0" />
  <metadata
     id="metadata5">
    <rdf:RDF>
      <cc:Work
         rdf:about="">
        <dc:format>image/svg+xml</dc:format>
        <dc:type
           rdf:resource="http://purl.org/dc/dcmitype/StillImage" />
        <dc:title></dc:title>
      </cc:Work>
    </rdf:RDF>
  </metadata>
  <g
     inkscape:label="Capa 1"
     inkscape:groupmode="layer"
     id="layer1"
     transform="translate(-59.795523,-76.805371)">
    <path
       style="fill:#000000;stroke-width:0.386081"
       d="m 98.915269,192.85561 -7.772261,-9.82707 0.25469,-2.49504 0.25469,-2.49504 -1.19334,1.31687 -1.19334,1.31686 -0.0107,-1.1009 c -0.006,-0.6055 0.88962,-3.38223 1.98996,-6.17051 1.10033,-2.78829 1.942041,-5.42514 1.870471,-5.85968 -0.113511,-0.68912 -0.221001,-0.62937 -0.841311,0.4677 -0.39115,0.69177 -0.77176,1.19971 -0.84582,1.12875 -0.074,-0.071 -0.32061,-1.40084 -0.54792,-2.95527 -0.374,-2.55761 -0.32534,-3.09404 0.51193,-5.64372 0.89867,-2.73666 0.93795,-2.78709 1.36948,-1.75829 0.244341,0.58254 0.444261,1.10762 0.444261,1.16684 0,0.45164 4.57221,8.03416 5.06694,8.40298 0.34698,0.25867 1.48818,0.4703 2.536011,0.4703 1.73906,0 1.90513,-0.0776 1.90513,-0.88987 0,-0.48944 -0.35154,-1.31432 -0.7812,-1.83307 l -0.7812,-0.9432 2.7573,-1.74128 c 1.51652,-0.9577 2.85073,-1.74128 2.9649,-1.74128 0.11417,0 1.45223,0.78602 2.97347,1.7467 l 2.76589,1.7467 -0.78979,1.21363 c -1.25455,1.92782 -1.06571,2.44252 0.89395,2.43654 3.05001,-0.009 3.11785,-0.0725 6.11853,-5.69768 l 2.81632,-5.27961 0.71692,2.19904 c 0.74109,2.27315 0.8442,6.09905 0.22152,8.21901 l -0.33154,1.12875 -0.74831,-1.31687 c -0.61748,-1.08664 -0.76946,-1.18531 -0.86929,-0.56437 -0.0665,0.41387 0.84369,3.17948 2.02272,6.1458 1.1798,2.96822 2.0519,5.72671 1.93953,6.1348 -0.18443,0.66978 -0.31024,0.62123 -1.30095,-0.50209 l -1.09677,-1.24358 0.20923,2.50082 0.20923,2.50083 -7.67725,9.80941 c -4.22248,5.39518 -7.80833,9.81475 -7.96854,9.82128 -0.16022,0.007 -3.78884,-4.4103 -8.063581,-9.81519 z M 109.2929,173.42367 c 0.24094,-0.15204 0.55556,-0.8838 0.69916,-1.62613 0.25605,-1.32368 0.22923,-1.35878 -1.39085,-1.81975 -1.29976,-0.36984 -2.01484,-0.37355 -3.35419,-0.0174 -1.62599,0.43236 -1.69173,0.50544 -1.46754,1.63162 0.12909,0.64845 0.40973,1.39064 0.62364,1.64931 0.41896,0.50661 4.1551,0.64595 4.88978,0.18236 z M 96.558809,161.42774 c -0.83967,-1.78966 -1.94634,-3.84124 -2.45927,-4.55908 -0.51293,-0.71784 -0.84874,-1.3848 -0.74623,-1.48215 0.1025,-0.0974 1.248,-0.26842 2.54556,-0.38016 l 2.35918,-0.20317 0.81376,2.39958 c 1.375541,4.0561 1.424851,4.69938 0.47239,6.16299 -0.47099,0.72376 -0.99187,1.31592 -1.15753,1.31592 -0.16565,0 -0.9882,-1.46426 -1.82786,-3.25393 z m 17.820471,2.23314 c -0.96228,-1.38888 -0.91892,-2.76392 0.19047,-6.04062 0.88435,-2.612 0.97085,-2.72086 2.15913,-2.71688 0.68083,0.002 1.8868,0.10606 2.67992,0.23062 l 1.44202,0.2265 -1.11243,1.56542 c -0.61184,0.86098 -1.73759,2.91167 -2.50166,4.55707 -0.76406,1.64541 -1.5561,3.04449 -1.76008,3.10906 -0.20398,0.0646 -0.6978,-0.35445 -1.09737,-0.93117 z m -12.87527,-3.78577 c -0.0119,-0.5639 -0.77406,-3.39564 -1.693671,-6.29274 l -1.67202,-5.26747 -1.37664,0.0991 c -0.75715,0.0545 -5.933301,0.19948 -11.502544,0.3222 l -10.125905,0.22313 -2.99837,-3.14406 c -2.203516,-2.31057 -3.542806,-4.17687 -5.05209,-7.04006 -1.129545,-2.14281 -1.9503,-3.99423 -1.823901,-4.11427 0.126398,-0.12004 2.459066,-0.0187 5.183705,0.22514 3.851348,0.34471 5.855651,0.74506 9.005618,1.79883 12.611716,4.21904 15.211287,5.04569 15.867217,5.04569 0.53597,0 0.0914,-0.67577 -1.71291,-2.60387 -2.242101,-2.3959 -2.890451,-2.8168 -8.117884,-5.26998 -4.147913,-1.94656 -6.649437,-3.41692 -9.268905,-5.44809 -4.410056,-3.41962 -5.206042,-3.87266 -10.027671,-5.70721 l -3.842082,-1.46186 -1.106841,-2.45285 c -1.133214,-2.51129 -1.17879,-2.8955 -1.429003,-12.04717 -0.07038,-2.57428 0.06408,-3.11845 1.53259,-6.20223 1.575071,-3.30756 1.690226,-3.43835 5.346666,-6.07246 2.055305,-1.48065 3.793694,-2.64277 3.863079,-2.58249 0.06939,0.0603 -1.500488,2.9622 -3.488611,6.44871 -3.187417,5.58966 -3.592434,6.51129 -3.425829,7.79559 0.324171,2.49893 0.803315,2.37719 3.027781,-0.76927 1.145004,-1.61959 1.981344,-2.60608 1.858531,-2.19221 -0.122813,0.41387 -0.601767,2.10698 -1.064344,3.76248 -0.462576,1.65549 -1.035447,3.48553 -1.273042,4.06675 -0.394733,0.96561 -0.300484,1.18467 1.092698,2.53967 0.838582,0.8156 1.63309,1.48291 1.765569,1.48291 0.858898,0 2.835183,-11.77354 2.999927,-17.87177 0.07827,-2.89711 0.242931,-5.69075 0.365926,-6.20809 0.461904,-1.94284 2.753148,-7.00842 3.732807,-8.25264 0.93619,-1.18901 7.585299,-6.140586 7.875565,-5.864906 0.06974,0.0662 -1.586643,2.81468 -3.68084,6.107646 l -3.807639,5.98725 -0.220013,3.92724 c -0.121007,2.15999 -0.05991,4.31975 0.135783,4.79948 0.354002,0.86784 0.368649,0.86333 2.912155,-0.89755 1.406001,-0.97337 3.681997,-2.88968 5.057771,-4.25845 1.375769,-1.36878 2.366509,-2.23472 2.201634,-1.92431 -0.462501,0.87074 -7.455795,10.82663 -9.352719,13.31484 l -1.689049,2.21555 -0.139777,6.15681 -0.139777,6.1568 1.243801,1.84082 c 1.95774,2.89745 11.605848,9.48419 12.562042,8.57608 0.14959,-0.14206 -0.0248,-1.27196 -0.38748,-2.5109 -0.93884,-3.20701 -0.863409,-6.99785 0.18399,-9.2466 0.46389,-0.99595 1.35688,-3.43016 1.98443,-5.40935 l 1.141,-3.59853 -0.16635,6.64019 c -0.15283,6.10006 -0.0967,6.81963 0.68972,8.84617 0.890441,2.29453 3.971901,7.83701 4.543781,8.17268 0.18045,0.10591 2.18207,-2.24476 4.448061,-5.22374 2.26598,-2.97897 4.16498,-5.37356 4.21999,-5.32131 0.055,0.0522 -0.49465,2.87956 -1.22149,6.28292 -0.72684,3.40336 -1.4384,7.05977 -1.58125,8.12535 l -0.25973,1.93744 1.98251,1.3821 c 2.23815,1.56034 2.63594,1.53454 4.91158,-0.31852 l 1.52906,-1.24512 -0.65221,-3.91603 c -0.35871,-2.15381 -1.07792,-5.7771 -1.59823,-8.05176 -0.52032,-2.27465 -0.90352,-4.17611 -0.85156,-4.22546 0.052,-0.0493 1.95309,2.34695 4.22473,5.3251 2.27164,2.97815 4.24364,5.34827 4.38222,5.26693 0.60786,-0.35679 3.64387,-5.65155 4.54654,-7.92911 0.96621,-2.4379 0.98402,-2.6632 0.72125,-9.12373 -0.14819,-3.64326 -0.17572,-6.53945 -0.0612,-6.43598 0.11454,0.10347 0.60346,1.54262 1.08649,3.19811 0.48304,1.65548 1.30467,3.97842 1.82584,5.16206 1.15206,2.61646 1.27011,6.48933 0.2981,9.77934 -0.35722,1.2091 -0.53731,2.3049 -0.40021,2.43511 0.95771,0.90954 10.52279,-5.55123 12.45733,-8.41435 l 1.26983,-1.87934 v -6.04327 -6.04328 l -1.31647,-1.82499 c -0.72406,-1.00375 -2.30662,-3.17948 -3.51681,-4.83497 -1.21019,-1.65549 -3.22099,-4.53378 -4.46845,-6.39621 l -2.2681,-3.38623 3.11076,2.91277 c 3.52864,3.30405 6.89081,5.6877 7.37456,5.22829 0.43687,-0.4149 0.49771,-4.18792 0.11539,-7.15586 -0.27481,-2.13339 -0.72381,-3.04681 -4.02796,-8.19418 -2.04527,-3.186216 -3.71867,-5.874496 -3.71867,-5.973926 0,-0.0994 1.35658,0.70964 3.01462,1.79797 4.35393,2.857876 5.73408,4.508986 7.4943,8.965666 1.43583,3.63537 1.50239,4.01031 1.61998,9.12517 0.11863,5.16064 1.5419,14.90724 2.54148,17.40411 l 0.4155,1.03788 1.74726,-1.62858 c 1.53269,-1.42857 1.69175,-1.72518 1.29523,-2.41525 -0.50239,-0.87429 -2.68728,-8.23985 -2.49767,-8.41993 0.0661,-0.0628 0.66837,0.78251 1.33844,1.87834 1.58328,2.58932 2.7175,3.92672 3.05684,3.60445 0.1494,-0.14189 0.35705,-0.98591 0.46144,-1.87561 0.17306,-1.47491 -0.12785,-2.17959 -3.41019,-7.98604 -1.98,-3.50261 -3.55612,-6.41005 -3.50249,-6.46098 0.0536,-0.0509 1.80667,1.11979 3.89564,2.60161 3.79207,2.68991 3.80057,2.69964 5.31859,6.08474 1.95527,4.36015 2.2633,6.41783 1.45246,9.70252 -0.47612,1.92875 -0.53175,2.89683 -0.22845,3.97597 0.35528,1.26415 0.24953,1.74638 -0.92936,4.23794 l -1.33027,2.81148 -4.59112,1.82293 c -3.70934,1.47281 -5.32277,2.3806 -8.40061,4.72659 -4.03237,3.07354 -8.42382,5.58579 -12.80767,7.327 -2.07277,0.82327 -3.23077,1.62393 -5.24926,3.62939 -1.4244,1.41521 -2.58982,2.68447 -2.58982,2.82058 0,0.53204 2.93059,-0.27893 11.58532,-3.20598 8.4191,-2.84735 9.33478,-3.07631 13.95775,-3.49009 2.72115,-0.24355 5.04278,-0.35238 5.15918,-0.24184 0.11639,0.11054 -0.65327,1.91518 -1.71036,4.01031 -1.37262,2.7205 -2.76158,4.7338 -4.85937,7.04364 l -2.93738,3.23431 -10.30044,-0.20871 c -5.66524,-0.11479 -10.91876,-0.25361 -11.67449,-0.3085 l -1.37403,-0.0998 -1.67831,5.45559 c -0.92306,3.00058 -1.68639,5.83231 -1.69628,6.29274 -0.016,0.74778 -0.15544,0.80803 -1.30553,0.56437 -0.70816,-0.15003 -2.53549,-0.27278 -4.06075,-0.27278 -1.52527,0 -3.3526,0.12275 -4.06076,0.27278 -1.20489,0.25527 -1.28894,0.20696 -1.30921,-0.75249 z M 89.039588,143.3053 c -0.37065,-0.31538 -16.733737,-4.96159 -17.469592,-4.96039 -0.193248,3.1e-4 1.563174,1.09306 3.90316,2.42833 3.951674,2.25493 4.442347,2.43568 6.893086,2.53909 1.451212,0.0613 3.634017,0.15927 4.850685,0.21785 1.297141,0.0625 2.051041,-0.0306 1.822661,-0.22488 z m 49.178322,-2.45979 c 2.23017,-1.26825 3.99842,-2.35949 3.92945,-2.42498 -0.17869,-0.16971 -16.59531,4.43436 -16.93445,4.7493 -0.15461,0.14357 1.79593,0.19815 4.33453,0.1213 l 4.61563,-0.13974 z m -45.143871,11.92165 c -0.514771,-0.48889 -0.278121,-2.3829 0.29774,-2.3829 1.1548,0 1.72587,0.43119 1.5271,1.15304 -0.22096,0.80248 0.27901,0.96255 0.96666,0.30949 0.57344,-0.54461 1.3328,-0.0947 1.04449,0.61889 -0.22875,0.56612 -3.30293,0.80773 -3.83599,0.30148 z m 23.771601,-0.2824 c -0.26591,-0.65811 0.67515,-1.05667 1.23641,-0.52364 0.60453,0.57412 1.42526,-0.007 0.88427,-0.62579 -0.31455,-0.35995 -0.25946,-0.54746 0.21125,-0.71901 1.36517,-0.49752 1.76048,-0.25393 1.76048,1.08481 v 1.31687 h -1.93847 c -1.30732,0 -2.00863,-0.17362 -2.15394,-0.53324 z"
       id="path42" />
  </g>
</svg>
